<mxfile host="app.diagrams.net" modified="2024-03-24T19:49:31.209Z" agent="Mozilla/5.0 (Windows NT 10.0; Win64; x64; rv:124.0) Gecko/20100101 Firefox/124.0" etag="gT6qJKkWK4giJxqn4Xxx" version="24.1.0" type="github">
  <diagram name="Page-1" id="74e2e168-ea6b-b213-b513-2b3c1d86103e">
    <mxGraphModel dx="1975" dy="1008" grid="1" gridSize="10" guides="1" tooltips="1" connect="1" arrows="1" fold="1" page="1" pageScale="1" pageWidth="1100" pageHeight="850" background="none" math="0" shadow="0">
      <root>
        <mxCell id="0" />
        <mxCell id="1" parent="0" />
        <mxCell id="77e6c97f196da883-1" value="&lt;span style=&quot;font-size:10.5pt;mso-bidi-font-size:11.0pt;&lt;br/&gt;font-family:等线;mso-ascii-theme-font:minor-latin;mso-fareast-theme-font:minor-fareast;&lt;br/&gt;mso-hansi-theme-font:minor-latin;mso-bidi-font-family:&amp;quot;Times New Roman&amp;quot;;&lt;br/&gt;mso-bidi-theme-font:minor-bidi;mso-ansi-language:EN-US;mso-fareast-language:&lt;br/&gt;ZH-CN;mso-bidi-language:AR-SA&quot;&gt;游戏中文化项目流程&lt;/span&gt;" style="swimlane;html=1;childLayout=stackLayout;startSize=20;rounded=0;shadow=0;labelBackgroundColor=none;strokeWidth=1;fontFamily=Verdana;fontSize=8;align=center;" parent="1" vertex="1">
          <mxGeometry x="70" y="10" width="960" height="1070" as="geometry" />
        </mxCell>
        <mxCell id="77e6c97f196da883-2" value="组长" style="swimlane;html=1;startSize=20;" parent="77e6c97f196da883-1" vertex="1">
          <mxGeometry y="20" width="160" height="1050" as="geometry" />
        </mxCell>
        <mxCell id="o6QtzW5qTcfIPGdQByNp-43" style="edgeStyle=orthogonalEdgeStyle;rounded=0;orthogonalLoop=1;jettySize=auto;html=1;" edge="1" parent="77e6c97f196da883-2" source="o6QtzW5qTcfIPGdQByNp-1" target="o6QtzW5qTcfIPGdQByNp-2">
          <mxGeometry relative="1" as="geometry" />
        </mxCell>
        <mxCell id="o6QtzW5qTcfIPGdQByNp-1" value="" style="ellipse;fillColor=strokeColor;html=1;" vertex="1" parent="77e6c97f196da883-2">
          <mxGeometry x="65" y="40" width="30" height="30" as="geometry" />
        </mxCell>
        <mxCell id="o6QtzW5qTcfIPGdQByNp-21" style="edgeStyle=orthogonalEdgeStyle;rounded=0;orthogonalLoop=1;jettySize=auto;html=1;" edge="1" parent="77e6c97f196da883-2" source="o6QtzW5qTcfIPGdQByNp-2" target="o6QtzW5qTcfIPGdQByNp-4">
          <mxGeometry relative="1" as="geometry" />
        </mxCell>
        <mxCell id="o6QtzW5qTcfIPGdQByNp-2" value="&lt;font style=&quot;font-size: 12px;&quot;&gt;前期调研&lt;/font&gt;" style="html=1;align=center;verticalAlign=top;rounded=1;absoluteArcSize=1;arcSize=10;dashed=0;whiteSpace=wrap;" vertex="1" parent="77e6c97f196da883-2">
          <mxGeometry x="30" y="100" width="100" height="50" as="geometry" />
        </mxCell>
        <mxCell id="o6QtzW5qTcfIPGdQByNp-3" value="制定翻译规范" style="html=1;align=center;verticalAlign=top;rounded=1;absoluteArcSize=1;arcSize=10;dashed=0;whiteSpace=wrap;" vertex="1" parent="77e6c97f196da883-2">
          <mxGeometry x="30" y="260.0000000000001" width="100" height="50" as="geometry" />
        </mxCell>
        <mxCell id="o6QtzW5qTcfIPGdQByNp-22" style="edgeStyle=orthogonalEdgeStyle;rounded=0;orthogonalLoop=1;jettySize=auto;html=1;entryX=0.5;entryY=0;entryDx=0;entryDy=0;" edge="1" parent="77e6c97f196da883-2" source="o6QtzW5qTcfIPGdQByNp-4" target="o6QtzW5qTcfIPGdQByNp-3">
          <mxGeometry relative="1" as="geometry" />
        </mxCell>
        <mxCell id="o6QtzW5qTcfIPGdQByNp-4" value="拟定项目计划" style="html=1;align=center;verticalAlign=top;rounded=1;absoluteArcSize=1;arcSize=10;dashed=0;whiteSpace=wrap;" vertex="1" parent="77e6c97f196da883-2">
          <mxGeometry x="30" y="180.0000000000001" width="100" height="50" as="geometry" />
        </mxCell>
        <mxCell id="77e6c97f196da883-3" value="技术" style="swimlane;html=1;startSize=20;" parent="77e6c97f196da883-1" vertex="1">
          <mxGeometry x="160" y="20" width="160" height="1050" as="geometry" />
        </mxCell>
        <mxCell id="o6QtzW5qTcfIPGdQByNp-26" style="edgeStyle=orthogonalEdgeStyle;rounded=0;orthogonalLoop=1;jettySize=auto;html=1;entryX=0.5;entryY=0;entryDx=0;entryDy=0;" edge="1" parent="77e6c97f196da883-3" source="o6QtzW5qTcfIPGdQByNp-6" target="o6QtzW5qTcfIPGdQByNp-10">
          <mxGeometry relative="1" as="geometry" />
        </mxCell>
        <mxCell id="o6QtzW5qTcfIPGdQByNp-6" value="进行文本提取" style="html=1;align=center;verticalAlign=top;rounded=1;absoluteArcSize=1;arcSize=10;dashed=0;whiteSpace=wrap;" vertex="1" parent="77e6c97f196da883-3">
          <mxGeometry x="30" y="430.0000000000001" width="100" height="50" as="geometry" />
        </mxCell>
        <mxCell id="o6QtzW5qTcfIPGdQByNp-25" style="edgeStyle=orthogonalEdgeStyle;rounded=0;orthogonalLoop=1;jettySize=auto;html=1;" edge="1" parent="77e6c97f196da883-3" source="o6QtzW5qTcfIPGdQByNp-5" target="o6QtzW5qTcfIPGdQByNp-6">
          <mxGeometry relative="1" as="geometry" />
        </mxCell>
        <mxCell id="o6QtzW5qTcfIPGdQByNp-5" value="获取源程序" style="html=1;align=center;verticalAlign=top;rounded=1;absoluteArcSize=1;arcSize=10;dashed=0;whiteSpace=wrap;" vertex="1" parent="77e6c97f196da883-3">
          <mxGeometry x="30" y="350.0000000000001" width="100" height="50" as="geometry" />
        </mxCell>
        <mxCell id="o6QtzW5qTcfIPGdQByNp-38" style="edgeStyle=orthogonalEdgeStyle;rounded=0;orthogonalLoop=1;jettySize=auto;html=1;" edge="1" parent="77e6c97f196da883-3" source="o6QtzW5qTcfIPGdQByNp-7" target="o6QtzW5qTcfIPGdQByNp-8">
          <mxGeometry relative="1" as="geometry" />
        </mxCell>
        <mxCell id="o6QtzW5qTcfIPGdQByNp-7" value="进行其他资产提取" style="html=1;align=center;verticalAlign=top;rounded=1;absoluteArcSize=1;arcSize=10;dashed=0;whiteSpace=wrap;" vertex="1" parent="77e6c97f196da883-3">
          <mxGeometry x="30" y="600.0000000000001" width="100" height="50" as="geometry" />
        </mxCell>
        <mxCell id="o6QtzW5qTcfIPGdQByNp-8" value="将资产处理成文本" style="html=1;align=center;verticalAlign=top;rounded=1;absoluteArcSize=1;arcSize=10;dashed=0;whiteSpace=wrap;" vertex="1" parent="77e6c97f196da883-3">
          <mxGeometry x="30" y="680.0000000000001" width="100" height="50" as="geometry" />
        </mxCell>
        <mxCell id="o6QtzW5qTcfIPGdQByNp-27" style="edgeStyle=orthogonalEdgeStyle;rounded=0;orthogonalLoop=1;jettySize=auto;html=1;entryX=0.5;entryY=0;entryDx=0;entryDy=0;" edge="1" parent="77e6c97f196da883-3" source="o6QtzW5qTcfIPGdQByNp-10" target="o6QtzW5qTcfIPGdQByNp-7">
          <mxGeometry relative="1" as="geometry" />
        </mxCell>
        <mxCell id="o6QtzW5qTcfIPGdQByNp-10" value="" style="rhombus;" vertex="1" parent="77e6c97f196da883-3">
          <mxGeometry x="65" y="530" width="30" height="30" as="geometry" />
        </mxCell>
        <mxCell id="o6QtzW5qTcfIPGdQByNp-46" value="No" style="text;html=1;align=center;verticalAlign=middle;resizable=0;points=[];autosize=1;strokeColor=none;fillColor=none;" vertex="1" parent="77e6c97f196da883-3">
          <mxGeometry x="110" y="518" width="40" height="30" as="geometry" />
        </mxCell>
        <mxCell id="o6QtzW5qTcfIPGdQByNp-47" value="Yes" style="text;html=1;align=center;verticalAlign=middle;resizable=0;points=[];autosize=1;strokeColor=none;fillColor=none;" vertex="1" parent="77e6c97f196da883-3">
          <mxGeometry x="80" y="560" width="40" height="30" as="geometry" />
        </mxCell>
        <mxCell id="o6QtzW5qTcfIPGdQByNp-52" value="&lt;div&gt;是否需要对&lt;/div&gt;&lt;div&gt;其他资产&lt;/div&gt;&lt;div&gt;进行中文化？&lt;/div&gt;" style="text;html=1;align=center;verticalAlign=middle;resizable=0;points=[];autosize=1;strokeColor=none;fillColor=none;" vertex="1" parent="77e6c97f196da883-3">
          <mxGeometry x="-20" y="515" width="100" height="60" as="geometry" />
        </mxCell>
        <mxCell id="o6QtzW5qTcfIPGdQByNp-53" value="将文本处理成资产" style="html=1;align=center;verticalAlign=top;rounded=1;absoluteArcSize=1;arcSize=10;dashed=0;whiteSpace=wrap;" vertex="1" parent="77e6c97f196da883-3">
          <mxGeometry x="30" y="810.0000000000001" width="100" height="50" as="geometry" />
        </mxCell>
        <mxCell id="77e6c97f196da883-4" value="翻译" style="swimlane;html=1;startSize=20;" parent="77e6c97f196da883-1" vertex="1">
          <mxGeometry x="320" y="20" width="160" height="1050" as="geometry" />
        </mxCell>
        <mxCell id="o6QtzW5qTcfIPGdQByNp-11" value="进行翻译" style="html=1;align=center;verticalAlign=top;rounded=1;absoluteArcSize=1;arcSize=10;dashed=0;whiteSpace=wrap;" vertex="1" parent="77e6c97f196da883-4">
          <mxGeometry x="30" y="520.0000000000001" width="100" height="50" as="geometry" />
        </mxCell>
        <mxCell id="77e6c97f196da883-5" value="校对" style="swimlane;html=1;startSize=20;" parent="77e6c97f196da883-1" vertex="1">
          <mxGeometry x="480" y="20" width="160" height="1050" as="geometry" />
        </mxCell>
        <mxCell id="o6QtzW5qTcfIPGdQByNp-33" style="edgeStyle=orthogonalEdgeStyle;rounded=0;orthogonalLoop=1;jettySize=auto;html=1;entryX=0.5;entryY=0;entryDx=0;entryDy=0;" edge="1" parent="77e6c97f196da883-5" source="o6QtzW5qTcfIPGdQByNp-12" target="o6QtzW5qTcfIPGdQByNp-17">
          <mxGeometry relative="1" as="geometry" />
        </mxCell>
        <mxCell id="o6QtzW5qTcfIPGdQByNp-12" value="校对翻译" style="html=1;align=center;verticalAlign=top;rounded=1;absoluteArcSize=1;arcSize=10;dashed=0;whiteSpace=wrap;" vertex="1" parent="77e6c97f196da883-5">
          <mxGeometry x="30" y="520.0000000000001" width="100" height="50" as="geometry" />
        </mxCell>
        <mxCell id="o6QtzW5qTcfIPGdQByNp-34" style="edgeStyle=orthogonalEdgeStyle;rounded=0;orthogonalLoop=1;jettySize=auto;html=1;entryX=1;entryY=0.5;entryDx=0;entryDy=0;" edge="1" parent="77e6c97f196da883-5" source="o6QtzW5qTcfIPGdQByNp-17" target="o6QtzW5qTcfIPGdQByNp-12">
          <mxGeometry relative="1" as="geometry">
            <Array as="points">
              <mxPoint x="150" y="625" />
              <mxPoint x="150" y="545" />
            </Array>
          </mxGeometry>
        </mxCell>
        <mxCell id="o6QtzW5qTcfIPGdQByNp-35" style="edgeStyle=orthogonalEdgeStyle;rounded=0;orthogonalLoop=1;jettySize=auto;html=1;entryX=0.5;entryY=0;entryDx=0;entryDy=0;" edge="1" parent="77e6c97f196da883-5" source="o6QtzW5qTcfIPGdQByNp-17" target="o6QtzW5qTcfIPGdQByNp-18">
          <mxGeometry relative="1" as="geometry" />
        </mxCell>
        <mxCell id="o6QtzW5qTcfIPGdQByNp-17" value="" style="rhombus;" vertex="1" parent="77e6c97f196da883-5">
          <mxGeometry x="65" y="610" width="30" height="30" as="geometry" />
        </mxCell>
        <mxCell id="o6QtzW5qTcfIPGdQByNp-40" style="edgeStyle=elbowEdgeStyle;rounded=0;orthogonalLoop=1;jettySize=auto;html=1;" edge="1" parent="77e6c97f196da883-5" source="o6QtzW5qTcfIPGdQByNp-18" target="o6QtzW5qTcfIPGdQByNp-12">
          <mxGeometry relative="1" as="geometry">
            <Array as="points">
              <mxPoint x="150" y="630" />
            </Array>
          </mxGeometry>
        </mxCell>
        <mxCell id="o6QtzW5qTcfIPGdQByNp-18" value="" style="rhombus;" vertex="1" parent="77e6c97f196da883-5">
          <mxGeometry x="65" y="690" width="30" height="30" as="geometry" />
        </mxCell>
        <mxCell id="o6QtzW5qTcfIPGdQByNp-48" value="Yes" style="text;html=1;align=center;verticalAlign=middle;resizable=0;points=[];autosize=1;strokeColor=none;fillColor=none;" vertex="1" parent="77e6c97f196da883-5">
          <mxGeometry x="100" y="598" width="40" height="30" as="geometry" />
        </mxCell>
        <mxCell id="o6QtzW5qTcfIPGdQByNp-49" value="No" style="text;html=1;align=center;verticalAlign=middle;resizable=0;points=[];autosize=1;strokeColor=none;fillColor=none;" vertex="1" parent="77e6c97f196da883-5">
          <mxGeometry x="40" y="650" width="40" height="30" as="geometry" />
        </mxCell>
        <mxCell id="o6QtzW5qTcfIPGdQByNp-51" value="No" style="text;html=1;align=center;verticalAlign=middle;resizable=0;points=[];autosize=1;strokeColor=none;fillColor=none;" vertex="1" parent="77e6c97f196da883-5">
          <mxGeometry x="100" y="680" width="40" height="30" as="geometry" />
        </mxCell>
        <mxCell id="o6QtzW5qTcfIPGdQByNp-55" value="&lt;div&gt;是否需要&lt;/div&gt;&lt;div&gt;再次校对？&lt;/div&gt;" style="text;html=1;align=center;verticalAlign=middle;resizable=0;points=[];autosize=1;strokeColor=none;fillColor=none;" vertex="1" parent="77e6c97f196da883-5">
          <mxGeometry y="605" width="80" height="40" as="geometry" />
        </mxCell>
        <mxCell id="o6QtzW5qTcfIPGdQByNp-56" value="&lt;div&gt;所有校对工作&lt;/div&gt;&lt;div&gt;是否已完毕？&lt;/div&gt;" style="text;html=1;align=center;verticalAlign=middle;resizable=0;points=[];autosize=1;strokeColor=none;fillColor=none;" vertex="1" parent="77e6c97f196da883-5">
          <mxGeometry x="-20" y="685" width="100" height="40" as="geometry" />
        </mxCell>
        <mxCell id="77e6c97f196da883-6" value="文学顾问" style="swimlane;html=1;startSize=20;" parent="77e6c97f196da883-1" vertex="1">
          <mxGeometry x="640" y="20" width="160" height="1050" as="geometry" />
        </mxCell>
        <mxCell id="o6QtzW5qTcfIPGdQByNp-16" value="为翻译提供支持" style="html=1;align=center;verticalAlign=top;rounded=1;absoluteArcSize=1;arcSize=10;dashed=0;whiteSpace=wrap;" vertex="1" parent="77e6c97f196da883-6">
          <mxGeometry x="30" y="430.0000000000001" width="100" height="50" as="geometry" />
        </mxCell>
        <mxCell id="o6QtzW5qTcfIPGdQByNp-28" style="edgeStyle=orthogonalEdgeStyle;rounded=0;orthogonalLoop=1;jettySize=auto;html=1;" edge="1" parent="77e6c97f196da883-6" source="o6QtzW5qTcfIPGdQByNp-19" target="o6QtzW5qTcfIPGdQByNp-16">
          <mxGeometry relative="1" as="geometry" />
        </mxCell>
        <mxCell id="o6QtzW5qTcfIPGdQByNp-19" value="进行项目文化研究" style="html=1;align=center;verticalAlign=top;rounded=1;absoluteArcSize=1;arcSize=10;dashed=0;whiteSpace=wrap;" vertex="1" parent="77e6c97f196da883-6">
          <mxGeometry x="30" y="350.0000000000001" width="100" height="50" as="geometry" />
        </mxCell>
        <mxCell id="o6QtzW5qTcfIPGdQByNp-13" value="运营" style="swimlane;html=1;startSize=20;" vertex="1" parent="77e6c97f196da883-1">
          <mxGeometry x="800" y="20" width="160" height="1050" as="geometry" />
        </mxCell>
        <mxCell id="o6QtzW5qTcfIPGdQByNp-45" style="edgeStyle=orthogonalEdgeStyle;rounded=0;orthogonalLoop=1;jettySize=auto;html=1;" edge="1" parent="o6QtzW5qTcfIPGdQByNp-13" source="o6QtzW5qTcfIPGdQByNp-14" target="o6QtzW5qTcfIPGdQByNp-44">
          <mxGeometry relative="1" as="geometry" />
        </mxCell>
        <mxCell id="o6QtzW5qTcfIPGdQByNp-20" value="将资产重新打包进游戏" style="html=1;align=center;verticalAlign=top;rounded=1;absoluteArcSize=1;arcSize=10;dashed=0;whiteSpace=wrap;" vertex="1" parent="o6QtzW5qTcfIPGdQByNp-13">
          <mxGeometry x="-610" y="900.0000000000001" width="100" height="50" as="geometry" />
        </mxCell>
        <mxCell id="o6QtzW5qTcfIPGdQByNp-42" style="edgeStyle=orthogonalEdgeStyle;rounded=0;orthogonalLoop=1;jettySize=auto;html=1;entryX=0;entryY=0.5;entryDx=0;entryDy=0;" edge="1" parent="o6QtzW5qTcfIPGdQByNp-13" source="o6QtzW5qTcfIPGdQByNp-20" target="o6QtzW5qTcfIPGdQByNp-14">
          <mxGeometry relative="1" as="geometry" />
        </mxCell>
        <mxCell id="o6QtzW5qTcfIPGdQByNp-14" value="进行发布或交付" style="html=1;align=center;verticalAlign=top;rounded=1;absoluteArcSize=1;arcSize=10;dashed=0;whiteSpace=wrap;" vertex="1" parent="o6QtzW5qTcfIPGdQByNp-13">
          <mxGeometry x="30" y="900.0000000000001" width="100" height="50" as="geometry" />
        </mxCell>
        <mxCell id="o6QtzW5qTcfIPGdQByNp-44" value="" style="ellipse;html=1;shape=endState;fillColor=strokeColor;" vertex="1" parent="o6QtzW5qTcfIPGdQByNp-13">
          <mxGeometry x="65" y="1000" width="30" height="30" as="geometry" />
        </mxCell>
        <mxCell id="o6QtzW5qTcfIPGdQByNp-23" style="edgeStyle=orthogonalEdgeStyle;rounded=0;orthogonalLoop=1;jettySize=auto;html=1;" edge="1" parent="77e6c97f196da883-1" source="o6QtzW5qTcfIPGdQByNp-3" target="o6QtzW5qTcfIPGdQByNp-19">
          <mxGeometry relative="1" as="geometry" />
        </mxCell>
        <mxCell id="o6QtzW5qTcfIPGdQByNp-24" style="edgeStyle=orthogonalEdgeStyle;rounded=0;orthogonalLoop=1;jettySize=auto;html=1;entryX=0.5;entryY=0;entryDx=0;entryDy=0;" edge="1" parent="77e6c97f196da883-1" source="o6QtzW5qTcfIPGdQByNp-3" target="o6QtzW5qTcfIPGdQByNp-5">
          <mxGeometry relative="1" as="geometry" />
        </mxCell>
        <mxCell id="o6QtzW5qTcfIPGdQByNp-29" style="edgeStyle=orthogonalEdgeStyle;rounded=0;orthogonalLoop=1;jettySize=auto;html=1;entryX=0.5;entryY=0;entryDx=0;entryDy=0;" edge="1" parent="77e6c97f196da883-1" source="o6QtzW5qTcfIPGdQByNp-16" target="o6QtzW5qTcfIPGdQByNp-11">
          <mxGeometry relative="1" as="geometry" />
        </mxCell>
        <mxCell id="o6QtzW5qTcfIPGdQByNp-30" style="edgeStyle=orthogonalEdgeStyle;rounded=0;orthogonalLoop=1;jettySize=auto;html=1;" edge="1" parent="77e6c97f196da883-1" source="o6QtzW5qTcfIPGdQByNp-16" target="o6QtzW5qTcfIPGdQByNp-12">
          <mxGeometry relative="1" as="geometry" />
        </mxCell>
        <mxCell id="o6QtzW5qTcfIPGdQByNp-31" style="edgeStyle=orthogonalEdgeStyle;rounded=0;orthogonalLoop=1;jettySize=auto;html=1;" edge="1" parent="77e6c97f196da883-1" source="o6QtzW5qTcfIPGdQByNp-10" target="o6QtzW5qTcfIPGdQByNp-11">
          <mxGeometry relative="1" as="geometry" />
        </mxCell>
        <mxCell id="o6QtzW5qTcfIPGdQByNp-32" style="edgeStyle=orthogonalEdgeStyle;rounded=0;orthogonalLoop=1;jettySize=auto;html=1;entryX=0;entryY=0.5;entryDx=0;entryDy=0;" edge="1" parent="77e6c97f196da883-1" source="o6QtzW5qTcfIPGdQByNp-11" target="o6QtzW5qTcfIPGdQByNp-12">
          <mxGeometry relative="1" as="geometry" />
        </mxCell>
        <mxCell id="o6QtzW5qTcfIPGdQByNp-39" style="edgeStyle=orthogonalEdgeStyle;rounded=0;orthogonalLoop=1;jettySize=auto;html=1;" edge="1" parent="77e6c97f196da883-1" source="o6QtzW5qTcfIPGdQByNp-8" target="o6QtzW5qTcfIPGdQByNp-11">
          <mxGeometry relative="1" as="geometry" />
        </mxCell>
        <mxCell id="o6QtzW5qTcfIPGdQByNp-41" style="edgeStyle=orthogonalEdgeStyle;rounded=0;orthogonalLoop=1;jettySize=auto;html=1;entryX=0.5;entryY=0;entryDx=0;entryDy=0;" edge="1" parent="77e6c97f196da883-1" source="o6QtzW5qTcfIPGdQByNp-18" target="o6QtzW5qTcfIPGdQByNp-53">
          <mxGeometry relative="1" as="geometry">
            <mxPoint x="240" y="800" as="targetPoint" />
            <Array as="points">
              <mxPoint x="560" y="790" />
              <mxPoint x="240" y="790" />
            </Array>
          </mxGeometry>
        </mxCell>
        <mxCell id="o6QtzW5qTcfIPGdQByNp-54" style="edgeStyle=orthogonalEdgeStyle;rounded=0;orthogonalLoop=1;jettySize=auto;html=1;entryX=0.5;entryY=0;entryDx=0;entryDy=0;" edge="1" parent="77e6c97f196da883-1" source="o6QtzW5qTcfIPGdQByNp-53" target="o6QtzW5qTcfIPGdQByNp-20">
          <mxGeometry relative="1" as="geometry" />
        </mxCell>
        <mxCell id="o6QtzW5qTcfIPGdQByNp-50" value="Yes" style="text;html=1;align=center;verticalAlign=middle;resizable=0;points=[];autosize=1;strokeColor=none;fillColor=none;" vertex="1" parent="1">
          <mxGeometry x="590" y="758" width="40" height="30" as="geometry" />
        </mxCell>
      </root>
    </mxGraphModel>
  </diagram>
</mxfile>
